<?xml version="1.0" standalone="no"?><!DOCTYPE svg PUBLIC "-//W3C//DTD SVG 1.1//EN" "http://www.w3.org/Graphics/SVG/1.1/DTD/svg11.dtd"><svg t="1670636304212" class="icon" viewBox="0 0 1024 1024" version="1.1" xmlns="http://www.w3.org/2000/svg" p-id="3605" xmlns:xlink="http://www.w3.org/1999/xlink" width="200" height="200"><path d="M720 112a192 192 0 1 0 0 384 192 192 0 0 0 0-384z m-128 192a128 128 0 1 1 256 0 128 128 0 0 1-256 0zM128 192a64 64 0 0 1 64-64h224a64 64 0 0 1 64 64v224a64 64 0 0 1-64 64H192a64 64 0 0 1-64-64V192z m64 0v224h224V192H192zM128 608a64 64 0 0 1 64-64h224a64 64 0 0 1 64 64V832a64 64 0 0 1-64 64H192a64 64 0 0 1-64-64V608z m64 0V832h224V608H192zM544 608a64 64 0 0 1 64-64H832a64 64 0 0 1 64 64V832a64 64 0 0 1-64 64H608a64 64 0 0 1-64-64V608z m64 224H832V608H608V832z" fill="#000000" fill-opacity=".9" p-id="3606"></path></svg>